<svg width="450" height="79" viewBox="0 0 450 79" fill="none" xmlns="http://www.w3.org/2000/svg">
<path fill-rule="evenodd" clip-rule="evenodd" d="M10.9331 20.6483C11.9746 20.6483 12.9558 20.581 13.8767 20.4465L21.1692 30.582H23.6956L16.0591 19.9684C16.5659 19.8158 17.0496 19.6376 17.5103 19.4337C19.3398 18.595 20.7481 17.4238 21.7354 15.92C22.7228 14.3873 23.2164 12.5654 23.2164 10.4543C23.2164 8.28534 22.7228 6.44897 21.7354 4.94518C20.7481 3.41246 19.3398 2.24123 17.5103 1.4315C15.6809 0.621762 13.4885 0.216893 10.9331 0.216893H0V30.582H2.22146V20.6483H10.9331ZM2.22146 2.21232V18.6962H10.9331C14.2144 18.6962 16.6972 17.9733 18.3815 16.5273C20.0948 15.0813 20.9514 13.057 20.9514 10.4543C20.9514 7.82263 20.0948 5.79829 18.3815 4.38125C16.6972 2.93529 14.2144 2.21232 10.9331 2.21232H2.22146Z" fill="white"/>
<path d="M99.5157 29.671C101.548 30.4229 103.697 30.7989 105.962 30.7989C108.489 30.7989 110.55 30.4374 112.148 29.7144C113.774 28.9625 114.979 27.9793 115.763 26.7647C116.547 25.5212 116.939 24.1909 116.939 22.7738C116.939 21.2122 116.59 19.9398 115.894 18.9565C115.197 17.9733 114.282 17.1924 113.149 16.6141C112.017 16.0357 110.783 15.573 109.447 15.2259C108.111 14.85 106.761 14.503 105.396 14.1848C104.031 13.8667 102.783 13.4763 101.65 13.0136C100.518 12.5509 99.6029 11.9292 98.9059 11.1483C98.238 10.3675 97.9041 9.32643 97.9041 8.02506C97.9041 6.89722 98.209 5.88505 98.8188 4.98855C99.4286 4.06314 100.372 3.3257 101.65 2.77624C102.928 2.22678 104.539 1.95204 106.485 1.95204C107.85 1.95204 109.258 2.16894 110.71 2.60272C112.191 3.00759 113.57 3.64381 114.848 4.51139L115.676 2.73286C114.514 1.89421 113.106 1.22907 111.451 0.737439C109.824 0.245813 108.169 0 106.485 0C103.988 0 101.94 0.375949 100.343 1.12785C98.7462 1.87974 97.5702 2.863 96.8151 4.0776C96.0601 5.29221 95.6826 6.62249 95.6826 8.06844C95.6826 9.659 96.0166 10.9604 96.6845 11.9725C97.3814 12.9558 98.2961 13.7366 99.4286 14.315C100.561 14.8934 101.81 15.3705 103.175 15.7465C104.539 16.0935 105.89 16.4261 107.226 16.7442C108.561 17.0623 109.795 17.4527 110.928 17.9154C112.06 18.3781 112.975 18.9999 113.672 19.7807C114.369 20.5615 114.717 21.6026 114.717 22.904C114.717 24.0029 114.398 25.0006 113.759 25.8971C113.149 26.7936 112.191 27.5166 110.884 28.066C109.607 28.5866 107.951 28.8469 105.919 28.8469C103.886 28.8469 101.955 28.4854 100.126 27.7624C98.3252 27.0105 96.9023 26.0995 95.8569 25.0295L94.855 26.6779C95.9585 27.8925 97.5121 28.8902 99.5157 29.671Z" fill="white"/>
<path fill-rule="evenodd" clip-rule="evenodd" d="M192.265 29.671C194.21 30.4229 196.316 30.7989 198.581 30.7989C200.846 30.7989 202.936 30.4229 204.853 29.671C206.799 28.8902 208.483 27.8058 209.906 26.4176C211.329 25.0295 212.432 23.4101 213.216 21.5592C214.029 19.6795 214.436 17.6262 214.436 15.3994C214.436 13.1727 214.029 11.1339 213.216 9.28305C212.432 7.4033 211.329 5.76937 209.906 4.38125C208.483 2.99313 206.799 1.92312 204.853 1.17123C202.936 0.390409 200.846 0 198.581 0C196.316 0 194.21 0.390409 192.265 1.17123C190.348 1.92312 188.664 3.00759 187.212 4.42463C185.789 5.81275 184.686 7.44668 183.902 9.32643C183.118 11.1773 182.725 13.2016 182.725 15.3994C182.725 17.5973 183.118 19.6361 183.902 21.5159C184.686 23.3667 185.789 25.0006 187.212 26.4176C188.664 27.8058 190.348 28.8902 192.265 29.671ZM203.982 27.7624C202.327 28.4275 200.526 28.7601 198.581 28.7601C196.635 28.7601 194.835 28.4275 193.179 27.7624C191.524 27.0972 190.072 26.1574 188.824 24.9428C187.604 23.7282 186.646 22.3111 185.949 20.6917C185.281 19.0722 184.947 17.3081 184.947 15.3994C184.947 13.4619 185.281 11.6978 185.949 10.1072C186.646 8.48777 187.604 7.07073 188.824 5.85613C190.072 4.64152 191.524 3.70165 193.179 3.03651C194.835 2.37137 196.635 2.0388 198.581 2.0388C200.526 2.0388 202.327 2.37137 203.982 3.03651C205.637 3.70165 207.074 4.64152 208.294 5.85613C209.514 7.07073 210.457 8.48777 211.125 10.1072C211.822 11.6978 212.171 13.4619 212.171 15.3994C212.171 17.3081 211.822 19.0722 211.125 20.6917C210.457 22.3111 209.514 23.7282 208.294 24.9428C207.074 26.1574 205.637 27.0972 203.982 27.7624Z" fill="white"/>
<path fill-rule="evenodd" clip-rule="evenodd" d="M251.804 20.6483C252.845 20.6483 253.826 20.581 254.747 20.4465L262.04 30.582H264.566L256.93 19.9684C257.437 19.8158 257.92 19.6376 258.381 19.4337C260.21 18.595 261.619 17.4238 262.606 15.92C263.593 14.3873 264.087 12.5654 264.087 10.4543C264.087 8.28534 263.593 6.44897 262.606 4.94518C261.619 3.41246 260.21 2.24123 258.381 1.4315C256.552 0.621762 254.359 0.216893 251.804 0.216893H240.871V30.582H243.092V20.6483H251.804ZM243.092 2.21232V18.6962H251.804C255.085 18.6962 257.568 17.9733 259.252 16.5273C260.965 15.0813 261.822 13.057 261.822 10.4543C261.822 7.82263 260.965 5.79829 259.252 4.38125C257.568 2.93529 255.085 2.21232 251.804 2.21232H243.092Z" fill="white"/>
<path fill-rule="evenodd" clip-rule="evenodd" d="M288.25 30.582L292.142 22.0364H309.826L313.731 30.582H316.127L302.101 0.216893H299.88L285.854 30.582H288.25ZM308.974 20.1711H292.992L300.97 2.65525L308.974 20.1711Z" fill="white"/>
<path d="M346.544 29.671C348.49 30.4229 350.595 30.7989 352.86 30.7989C355.009 30.7989 357.013 30.4519 358.871 29.7578C360.759 29.0348 362.37 27.9648 363.706 26.5478L362.312 25.1163C361.005 26.4176 359.553 27.3575 357.956 27.9359C356.388 28.4854 354.718 28.7601 352.947 28.7601C351.001 28.7601 349.187 28.4275 347.502 27.7624C345.847 27.0972 344.395 26.1574 343.147 24.9428C341.927 23.7282 340.969 22.3111 340.272 20.6917C339.604 19.0722 339.27 17.3081 339.27 15.3994C339.27 13.4908 339.604 11.7267 340.272 10.1072C340.969 8.48777 341.927 7.07073 343.147 5.85613C344.395 4.64152 345.847 3.70165 347.502 3.03651C349.187 2.37137 351.001 2.0388 352.947 2.0388C354.718 2.0388 356.388 2.32799 357.956 2.90638C359.553 3.45584 361.005 4.36679 362.312 5.63923L363.706 4.20774C362.37 2.7907 360.759 1.73515 358.871 1.04109C357.013 0.34703 355.009 0 352.86 0C350.595 0 348.504 0.390409 346.588 1.17123C344.671 1.92312 342.987 2.99313 341.535 4.38125C340.112 5.76937 339.009 7.4033 338.224 9.28305C337.44 11.1339 337.048 13.1727 337.048 15.3994C337.048 17.6262 337.44 19.6795 338.224 21.5592C339.009 23.4101 340.112 25.0295 341.535 26.4176C342.958 27.8058 344.628 28.8902 346.544 29.671Z" fill="white"/>
<path fill-rule="evenodd" clip-rule="evenodd" d="M418.752 30.582L422.644 22.0364H440.328L444.233 30.582H446.629L432.603 0.216893H430.382L416.356 30.582H418.752ZM439.476 20.1711H423.494L431.472 2.65525L439.476 20.1711Z" fill="white"/>
<path fill-rule="evenodd" clip-rule="evenodd" d="M261.29 50.023C258.764 48.7506 255.846 48.1143 252.535 48.1143H238.684V78.4795H252.535C255.846 78.4795 258.764 77.8577 261.29 76.6142C263.817 75.3417 265.791 73.5777 267.214 71.322C268.637 69.0374 269.349 66.3623 269.349 63.2969C269.349 60.2026 268.637 57.5275 267.214 55.2718C265.791 53.0161 263.817 51.2665 261.29 50.023ZM257.457 71.5822C255.976 72.3341 254.219 72.7101 252.187 72.7101H245.74V53.8837H252.187C254.219 53.8837 255.976 54.2741 257.457 55.0549C258.967 55.8068 260.129 56.8913 260.942 58.3084C261.784 59.6965 262.205 61.3593 262.205 63.2969C262.205 65.2056 261.784 66.8684 260.942 68.2855C260.129 69.7025 258.967 70.8014 257.457 71.5822Z" fill="#D50F11"/>
<path d="M323.886 78.0457C326.122 78.6819 328.46 79 330.899 79C333.803 79 336.199 78.5662 338.086 77.6986C340.003 76.8311 341.44 75.6888 342.398 74.2717C343.357 72.8547 343.836 71.293 343.836 69.5868C343.836 67.9963 343.502 66.6805 342.834 65.6394C342.195 64.5983 341.353 63.7596 340.308 63.1234C339.262 62.4872 338.101 61.9811 336.823 61.6051C335.574 61.2292 334.311 60.8966 333.034 60.6074C331.785 60.3182 330.638 60.029 329.592 59.7398C328.547 59.4507 327.705 59.0747 327.066 58.612C326.427 58.1204 326.108 57.4842 326.108 56.7033C326.108 56.0382 326.297 55.4598 326.674 54.9682C327.052 54.4476 327.676 54.0283 328.547 53.7102C329.418 53.3921 330.536 53.233 331.901 53.233C333.266 53.233 334.66 53.4355 336.083 53.8403C337.505 54.2163 338.928 54.8091 340.351 55.6189L342.529 50.2833C341.106 49.3868 339.466 48.7216 337.607 48.2879C335.749 47.8252 333.861 47.5938 331.945 47.5938C329.07 47.5938 326.674 48.0276 324.757 48.8952C322.87 49.7338 321.447 50.8761 320.489 52.3221C319.56 53.7391 319.095 55.3152 319.095 57.0504C319.095 58.6698 319.414 60.0001 320.053 61.0412C320.721 62.0823 321.578 62.921 322.623 63.5572C323.669 64.1934 324.816 64.7139 326.064 65.1188C327.342 65.5237 328.605 65.8707 329.854 66.1599C331.131 66.4202 332.293 66.7094 333.338 67.0275C334.384 67.3167 335.226 67.7071 335.865 68.1987C336.504 68.6614 336.823 69.2976 336.823 70.1074C336.823 70.7436 336.62 71.3075 336.213 71.7991C335.807 72.2908 335.168 72.6812 334.297 72.9704C333.455 73.2306 332.337 73.3608 330.943 73.3608C329.113 73.3608 327.298 73.0716 325.498 72.4932C323.727 71.8859 322.188 71.1195 320.881 70.1941L318.485 75.4863C319.85 76.5274 321.65 77.3805 323.886 78.0457Z" fill="#D50F11"/>
<path d="M387.996 77.8722C390.029 78.6241 392.25 79 394.66 79C396.838 79 399.016 78.6674 401.194 78.0023C403.401 77.3372 405.332 76.3828 406.987 75.1393V62.8197H400.541V71.7392C400.067 71.9871 399.588 72.1951 399.103 72.3631C397.796 72.7968 396.446 73.0137 395.052 73.0137C393.6 73.0137 392.265 72.7824 391.045 72.3197C389.854 71.857 388.809 71.1918 387.909 70.3243C387.038 69.4278 386.355 68.3867 385.862 67.201C385.397 66.0153 385.165 64.7139 385.165 63.2969C385.165 61.8509 385.397 60.5351 385.862 59.3494C386.355 58.1638 387.038 57.1371 387.909 56.2696C388.809 55.402 389.869 54.7368 391.089 54.2741C392.308 53.8114 393.658 53.5801 395.139 53.5801C396.678 53.5801 398.101 53.8693 399.408 54.4476C400.715 54.9971 401.92 55.8502 403.023 57.007L407.553 52.8426C406.072 51.1364 404.243 49.835 402.065 48.9385C399.916 48.0421 397.492 47.5938 394.791 47.5938C392.352 47.5938 390.116 47.9842 388.083 48.765C386.05 49.5169 384.279 50.6014 382.769 52.0184C381.259 53.4355 380.083 55.0983 379.241 57.007C378.428 58.9157 378.021 61.0123 378.021 63.2969C378.021 65.5815 378.428 67.6782 379.241 69.5868C380.083 71.4955 381.244 73.1583 382.725 74.5754C384.235 75.9924 385.992 77.0913 387.996 77.8722Z" fill="#D50F11"/>
<path d="M443.031 66.5364L427.873 48.1143H422.036V78.4795H429.005V60.0492L444.207 78.4795H450V48.1143H443.031V66.5364Z" fill="#D50F11"/>
<path d="M52.3013 28.5866V16.1369H68.5484V14.1848H52.3013V2.21232H70.4649V0.216893H50.0798V30.582H71.1183V28.5866H52.3013Z" fill="white"/>
<path d="M148.632 30.582V2.21232H137.656V0.216893H161.83V2.21232H150.854V30.582H148.632Z" fill="white"/>
<path d="M389.876 30.582V0.216893H392.098V30.582H389.876Z" fill="white"/>
<path d="M290.177 65.8129V72.8402H306.772V78.4795H283.164V48.1143H306.206V53.7536H290.177V60.3471H304.333V65.8129H290.177Z" fill="#D50F11"/>
<path d="M357.151 48.1143V78.4795H364.208V48.1143H357.151Z" fill="#D50F11"/>
</svg>
