<svg width="236" height="80" viewBox="0 0 236 80" fill="none" xmlns="http://www.w3.org/2000/svg">
<path d="M170.699 6.10034H165.215V45.0288H170.699V6.10034Z" fill="#E0E0E0"/>
<path d="M179.973 37.9988C177.921 37.9988 176.269 39.7235 176.269 41.8651C176.269 44.0067 177.921 45.7314 179.973 45.7314C182.024 45.7314 183.677 44.0067 183.677 41.8651C183.677 39.7235 182.024 37.9988 179.973 37.9988Z" fill="#E0E0E0"/>
<path d="M194.398 31.4801C194.398 26.8367 197.067 22.8567 202.241 22.8567H205.509V17.4363H202.241C198.192 17.4363 196.34 18.7819 194.452 21.0183L194.416 21.0752V17.4363H188.987V45.0122H194.398C194.398 44.9932 194.398 33.3564 194.398 31.4801Z" fill="#E0E0E0"/>
<path d="M159.261 17.4363H153.778V45.0122H159.261V17.4363Z" fill="#E0E0E0"/>
<path d="M156.517 12.8681C158.568 12.8681 160.22 11.1434 160.22 9.00181C160.22 6.86018 158.55 5.1355 156.517 5.1355C154.465 5.1355 152.813 6.86018 152.813 9.00181C152.813 11.1434 154.483 12.8681 156.517 12.8681Z" fill="#E0E0E0"/>
<path d="M142.449 20.2223C140.343 17.9859 137.111 16.735 133.897 16.735C126.235 16.735 120.007 23.2357 120.007 31.2337C120.007 39.2317 126.235 45.7324 133.897 45.7324C137.111 45.7324 140.506 44.292 142.449 42.0177V45.0311H147.842V17.4363H142.449V20.2223ZM134.079 39.9708C129.358 39.9708 125.763 36.1803 125.763 31.2337C125.763 26.2871 129.358 22.5345 134.079 22.5345C138.8 22.5345 142.522 26.0597 142.522 31.2337C142.522 36.4077 138.8 39.9708 134.079 39.9708Z" fill="#E0E0E0"/>
<path d="M220.685 45.7324C223.137 45.7324 226.26 44.3489 228.22 41.9987C228.239 43.0411 228.22 43.9888 228.22 45.0122H233.613V17.4363H228.202V32.5793C228.202 36.5025 225.334 40.1604 221.03 40.1604C217.272 40.1604 214.603 37.3175 214.603 33.2427V17.4552H209.192V33.7165C209.21 40.9943 212.969 45.7324 220.685 45.7324Z" fill="#E0E0E0"/>
<path d="M104.176 16.735C100.581 16.735 97.0583 18.4408 94.9158 21.132C92.9549 18.4218 90.1043 16.735 86.2732 16.735C83.1503 16.735 80.917 18.1944 79.7186 19.3694V17.4363H74.3261V45.0122H79.7186V28.8836C79.7186 25.2826 82.5329 22.3639 85.9645 22.3639C89.3961 22.3639 92.2104 25.3016 92.2104 28.8836V45.0122H97.603V28.8836C97.603 25.2826 100.417 22.3639 103.849 22.3639C107.28 22.3639 110.095 25.3016 110.095 28.8836V45.0122H115.487V28.8836C115.524 21.4921 110.93 16.735 104.176 16.735Z" fill="#E0E0E0"/>
<path d="M175.39 57.7666L175.354 57.8045V55.6628H171.904V71.8483H175.354C175.354 71.8294 175.354 65.3665 175.354 64.2673C175.354 61.5381 176.916 59.207 179.948 59.207H181.854V55.6628H179.948C177.587 55.6628 176.498 56.4589 175.39 57.7666Z" fill="#E0E0E0"/>
<path d="M212.479 64.5332C212.479 67.1297 210.482 68.6838 208.539 68.6838C206.488 68.6838 205.035 67.1297 205.035 64.9123V55.6824H201.567V65.1776C201.567 69.6693 204.037 72.2658 208.322 72.2658C209.72 72.2658 211.372 71.5267 212.461 70.4085C212.461 70.6928 212.461 70.9771 212.461 71.2613V71.8678H215.911V55.6824H212.443L212.479 64.5332Z" fill="#E0E0E0"/>
<path d="M190.836 55.2664C186.351 55.2664 182.702 59.0759 182.702 63.7571C182.702 68.4384 186.351 72.2479 190.836 72.2479C195.321 72.2479 198.97 68.4384 198.97 63.7571C198.97 59.0759 195.339 55.2664 190.836 55.2664ZM190.836 68.6469C188.258 68.6469 186.152 66.4484 186.152 63.7571C186.152 61.0659 188.258 58.8674 190.836 58.8674C193.414 58.8674 195.521 61.0659 195.521 63.7571C195.521 66.4484 193.433 68.6469 190.836 68.6469Z" fill="#E0E0E0"/>
<path d="M227.549 55.2664C225.77 55.2664 224.045 55.9108 222.829 57.01V55.6644H219.379V77.4219H222.829V70.4095C223.991 71.5466 225.788 72.2668 227.549 72.2668C232.034 72.2668 235.684 68.4574 235.684 63.7761C235.684 59.0759 232.034 55.2664 227.549 55.2664ZM227.44 68.5711C224.735 68.5711 222.774 66.5432 222.774 63.7571C222.774 60.9711 224.735 58.9622 227.44 58.9622C230.055 58.9622 232.034 61.028 232.034 63.7571C232.034 66.5052 230.055 68.5711 227.44 68.5711Z" fill="#E0E0E0"/>
<path d="M165.018 57.01C163.801 55.9108 162.076 55.2664 160.297 55.2664C155.812 55.2664 152.163 59.0759 152.163 63.7571C152.163 68.4384 155.812 72.2479 160.297 72.2479C162.058 72.2479 163.855 71.5277 165.018 70.3905V70.7127C164.963 74.0294 163.42 75.7162 160.406 75.7162H160.369C158.663 75.7162 157.156 75.0339 155.758 73.6124L155.631 73.4798L153.125 75.9815L153.234 76.1142C154.523 77.6872 157.138 79.4877 160.279 79.4877C160.333 79.4877 160.388 79.4877 160.442 79.4877C163.383 79.4309 168.322 78.2369 168.467 70.8454V55.6455H165.018V57.01ZM160.406 68.5711C157.791 68.5711 155.812 66.5052 155.812 63.7571C155.812 61.028 157.791 58.9622 160.406 58.9622C163.111 58.9622 165.072 60.9711 165.072 63.7571C165.054 66.5432 163.111 68.5711 160.406 68.5711Z" fill="#E0E0E0"/>
<path d="M38.0106 30.7417C38.0106 35.7641 34.1069 39.8389 29.2954 39.8389C24.4839 39.8389 20.5802 35.7641 20.5802 30.7417C20.5802 25.7193 24.4839 21.6445 29.2954 21.6445C34.1069 21.6445 38.0106 25.7383 38.0106 30.7417ZM29.2954 0.512451C13.3176 0.512451 0.317383 14.0825 0.317383 30.7607C0.317383 47.4389 13.3176 60.9899 29.2954 60.9899C35.1419 60.9899 40.7886 59.1705 45.6183 55.7211L45.7091 55.6643L41.8054 50.9262L41.7327 50.9641C38.0106 53.4468 33.7257 54.7735 29.2954 54.7735C16.6039 54.7735 6.27277 43.9895 6.27277 30.7417C6.27277 17.4939 16.6039 6.70993 29.2954 6.70993C41.9869 6.70993 52.3181 17.4939 52.3181 30.7417C52.3181 32.4664 52.1365 34.1911 51.7734 35.9158C51.0471 39.0429 48.9591 39.9906 47.3795 39.8579C45.7998 39.7252 43.9479 38.5502 43.9297 35.6694V30.7417C43.9297 22.3078 37.357 15.447 29.2773 15.447C21.1976 15.447 14.6248 22.3078 14.6248 30.7417C14.6248 39.1756 21.1976 46.0364 29.2773 46.0364C33.1991 46.0364 36.8849 44.4254 39.6629 41.5257C41.2788 44.1412 43.9115 45.79 46.9074 46.0364C47.1616 46.0554 47.4339 46.0743 47.6881 46.0743C49.7943 46.0743 51.8823 45.3352 53.5709 44.0085C55.3139 42.625 56.6031 40.6349 57.3112 38.2469C57.4201 37.8679 57.638 36.9771 57.638 36.9771V36.9392C58.0556 35.025 58.2553 33.1108 58.2553 30.7417C58.2735 14.0825 45.2733 0.512451 29.2954 0.512451Z" fill="#E0E0E0"/>
</svg>
