<svg width="210" height="126" viewBox="0 0 210 126" fill="none" xmlns="http://www.w3.org/2000/svg">
<path d="M75.1855 119.067C74.9831 119.986 74.4769 120.701 73.7682 121.11C73.0595 121.519 72.1484 121.519 71.0348 121.314L66.1754 119.986L66.5803 118.352L67.5927 118.659L69.3137 111.917L68.3014 111.611L68.7063 110.078L76.5016 112.121L75.6917 115.186L73.9707 114.675L74.3756 113.143L71.7434 112.428L71.136 114.675L72.6546 115.083C73.7682 115.39 74.4769 115.901 74.9831 116.616C75.2868 117.229 75.388 118.148 75.1855 119.067ZM72.6546 118.352C72.7558 117.841 72.7558 117.535 72.4521 117.126C72.2496 116.82 71.8447 116.616 71.3385 116.411L70.7311 116.207L69.9212 119.067L70.5286 119.271C71.7434 119.68 72.3509 119.374 72.6546 118.352Z" fill="#E0E0E0"/>
<path d="M89.6625 124.787L85.1068 124.072L85.3093 122.438L86.4229 122.642L87.1316 117.944L83.0821 123.868L79.5388 123.357L79.7412 121.723L80.8549 121.927L81.8672 115.083L80.7536 114.879L80.9561 113.347L85.5118 114.062L85.3093 115.594L84.1957 115.39L83.487 120.191L87.5365 114.266L91.0799 114.777L90.8774 116.309L89.7638 116.105L88.7514 122.949L89.865 123.153L89.6625 124.787Z" fill="#E0E0E0"/>
<path d="M105.253 122.438C104.848 123.561 104.14 124.379 103.228 124.991C102.317 125.502 101.305 125.809 100.09 125.706C98.5715 125.604 97.3566 125.094 96.3442 124.072C95.4331 123.051 94.9269 121.723 95.0281 120.191C95.1294 118.659 95.6356 117.433 96.6479 116.514C97.6603 115.594 98.8752 115.084 100.394 115.186C101.71 115.288 102.722 115.696 103.431 116.616V115.492L104.949 115.594L104.747 119.169L103.228 119.067C102.621 117.739 101.71 117.024 100.495 116.922C99.6851 116.922 98.9764 117.126 98.4702 117.739C97.9641 118.352 97.6603 119.169 97.5591 120.293C97.5591 121.416 97.7616 122.234 98.1665 122.846C98.6727 123.459 99.2801 123.868 100.191 123.868C101.609 123.97 102.722 123.153 103.33 121.416L105.253 122.438Z" fill="#E0E0E0"/>
<path d="M118.212 119.067L116.592 119.169L116.491 116.82L115.073 116.922L115.377 123.868H116.491L116.592 125.502L112.036 125.706L111.935 124.072L113.048 123.97L112.745 117.024L111.327 117.126L111.429 119.476L109.809 119.578L109.606 115.594L118.11 115.186L118.212 119.067Z" fill="#E0E0E0"/>
<path d="M131.17 116.718C131.373 117.841 131.17 118.659 130.563 119.271C130.056 119.884 129.044 120.293 127.728 120.497L126.412 120.701L126.716 122.846L127.829 122.642L128.032 124.276L123.476 124.889L123.274 123.255L124.387 123.051L123.375 116.105L122.261 116.309L122.059 114.777L126.817 114.062C128.133 113.858 129.145 113.96 129.854 114.368C130.563 114.777 131.069 115.594 131.17 116.718ZM128.639 117.024C128.538 116.411 128.335 116.105 128.032 115.901C127.627 115.696 127.121 115.696 126.412 115.799L125.906 115.901L126.311 119.067L126.817 118.965C127.525 118.863 128.032 118.659 128.335 118.352C128.538 118.046 128.74 117.637 128.639 117.024Z" fill="#E0E0E0"/>
<path d="M146.356 115.084C146.761 116.616 146.558 117.944 145.85 119.169C145.141 120.395 144.027 121.212 142.509 121.519C140.99 121.927 139.674 121.723 138.459 121.008C137.244 120.293 136.434 119.169 136.131 117.739C135.726 116.207 135.928 114.879 136.637 113.653C137.346 112.428 138.459 111.611 139.978 111.202C141.496 110.793 142.812 110.998 143.926 111.713C145.242 112.53 146.052 113.551 146.356 115.084ZM143.724 115.696C143.42 114.675 143.015 113.858 142.407 113.449C141.8 112.938 141.091 112.836 140.383 113.041C139.674 113.245 139.067 113.654 138.763 114.471C138.459 115.186 138.459 116.105 138.662 117.126C138.965 118.148 139.37 118.965 139.978 119.374C140.585 119.884 141.294 119.986 142.003 119.782C142.711 119.578 143.217 119.169 143.521 118.352C144.027 117.637 144.027 116.718 143.724 115.696Z" fill="#E0E0E0"/>
<path d="M162.858 113.654C162.858 113.654 162.858 113.551 162.756 113.551C162.554 113.245 161.946 113.041 161.643 113.041C161.44 113.041 161.339 113.041 161.136 113.041C160.124 113.347 159.618 112.019 159.618 111.1C159.618 110.691 160.225 109.976 160.428 109.568C160.428 109.568 160.63 107.933 160.428 108.036C160.529 108.036 160.529 107.933 160.428 107.933C160.023 107.014 159.618 106.299 159.112 105.686C159.112 105.482 159.112 105.38 159.01 105.176C158.909 104.869 158.302 104.767 157.897 104.767C157.391 104.563 156.783 104.563 155.973 104.665C154.455 104.971 152.734 106.503 152.329 108.036C152.126 108.546 153.645 110.283 153.949 110.793C153.949 110.793 153.949 110.896 154.05 110.896L154.151 110.998C154.961 111.713 155.872 111.917 156.986 112.019C157.188 112.019 157.492 112.019 157.694 111.917C157.492 111.917 158.201 113.143 158.201 113.143C158.707 114.062 157.897 114.675 157.492 115.39V115.492L157.593 115.594C157.897 116.003 158.606 116.105 159.01 116.003C159.82 115.799 160.428 115.492 161.136 114.981C161.744 114.573 162.25 114.062 162.756 113.551C162.858 113.858 162.858 113.756 162.858 113.654ZM160.732 113.96C160.529 114.164 160.225 114.369 160.023 114.573C160.023 114.471 160.023 114.471 160.023 114.471C160.023 114.266 159.922 113.96 159.82 113.756C159.922 113.858 160.124 113.858 160.225 113.96C160.428 113.96 160.63 113.96 160.732 113.96ZM157.593 105.482C157.593 106.197 157.087 106.81 156.682 107.218C155.973 107.831 154.961 108.342 154.05 108.444H153.949C153.847 107.321 156.378 105.686 157.593 105.482ZM157.796 111.508C157.087 111.304 156.075 111.713 155.467 111.1C155.062 110.487 154.657 109.772 154.252 109.159C155.062 109.159 155.973 108.955 156.581 108.648C157.188 108.342 158.099 107.831 158.606 107.218C158.808 107.525 158.909 107.627 158.909 107.627C158.909 107.627 158.808 107.729 158.909 107.831C159.314 109.466 157.998 110.487 158.302 111.713C158.099 111.611 157.998 111.611 157.796 111.508Z" fill="#E0E0E0"/>
<path d="M58.38 113.041C58.1776 111.713 56.8615 110.487 56.4565 109.159C55.9503 107.627 58.4813 107.831 58.6838 106.503C58.785 105.993 57.8739 105.482 57.5701 105.38C56.5578 105.073 55.7479 105.176 54.8367 104.563C54.6342 104.461 53.9256 103.95 53.7231 104.256C53.3181 104.869 53.6219 106.197 53.5206 106.912C53.5206 107.831 51.4959 107.321 50.8884 107.525C49.3699 107.933 47.6488 109.159 48.2563 110.998C48.56 111.815 49.3699 112.326 50.0785 112.836C51.5971 113.756 53.1157 114.471 54.533 115.492C56.4565 116.82 58.6838 115.492 58.38 113.041ZM56.9627 106.095C56.7602 106.503 55.9503 106.708 55.5454 106.912C55.3429 107.014 55.2417 107.116 55.0392 107.218C55.0392 106.606 54.8367 105.891 55.0392 105.38C55.6466 105.788 56.254 106.095 56.9627 106.095ZM53.6219 114.062C52.7107 113.449 50.1798 112.836 49.7748 111.713C49.0662 109.568 51.3946 108.751 53.1157 108.546C52.7107 108.648 52.3058 108.751 51.9008 108.955C51.2934 109.261 50.7872 110.078 50.8884 110.793C50.8884 110.691 51.0909 110.385 51.2934 110.078C51.3946 109.976 51.4959 109.976 51.5971 109.976C51.9008 109.874 52.3058 109.772 52.6095 109.67C53.1157 109.568 53.5206 109.363 54.0268 109.159C53.9256 109.261 53.8243 109.261 53.8243 109.363C53.4194 109.976 53.2169 110.691 53.5206 111.406L53.8243 110.896C53.8243 110.793 54.0268 110.487 54.0268 110.385C54.0268 110.283 53.9256 110.181 53.9256 110.078C54.1281 109.976 54.3305 109.874 54.4318 109.67C54.533 109.568 54.533 109.466 54.6342 109.363C54.6342 109.568 54.6342 109.874 54.6342 110.078C54.6342 110.589 55.0392 111.1 55.2417 111.508L55.5454 110.998C55.5454 110.896 55.7479 110.589 55.7479 110.385C55.5454 109.976 55.2417 109.466 55.1404 108.955C55.1404 108.955 55.1404 108.955 55.1404 108.853C55.7479 110.691 57.6714 112.019 56.5578 114.062C55.6466 115.594 54.6342 114.675 53.6219 114.062Z" fill="#E0E0E0"/>
<path d="M62.7333 98.1276C62.9357 99.2512 67.4915 102.52 69.6175 102.622C70.0224 102.52 70.7311 102.52 70.7311 101.703C70.7311 100.477 69.3137 99.8641 69.3137 99.4555L64.9605 94.9612C64.1506 94.0419 63.037 92.2033 61.7209 89.7519C57.7726 82.0911 57.5701 81.5804 57.3677 81.5804C57.3677 81.5804 57.2664 81.6825 57.064 81.6825C55.5454 78.0053 53.7231 72.796 53.0144 69.4252C52.407 66.8716 51.6984 63.5009 51.7996 61.458C51.7996 61.0495 51.9008 60.5387 52.0021 60.028C52.0021 59.8237 51.6983 59.4152 51.6983 59.1087C51.6983 58.3937 52.1033 58.3937 52.3058 57.7809C52.3058 54.8187 53.1157 52.7758 53.1157 50.4265C52.812 49.8136 52.6095 49.4051 52.6095 48.7922C52.6095 47.0558 53.2169 45.6258 53.2169 43.5829C53.2169 41.7443 52.9132 37.4543 50.9897 37.4543C50.1798 37.7607 50.3823 37.5564 49.7748 37.5564L48.7625 38.4757C47.0414 39.1907 46.9402 43.8893 46.9402 43.7872C45.6241 46.2386 45.5228 50.4265 45.5228 50.1201C45.6241 50.5287 45.6241 51.0394 45.6241 51.2437C45.4216 53.0822 46.2315 55.2273 46.2315 57.0659C46.2315 59.7216 46.8389 61.6623 46.8389 63.7052C46.8389 66.3609 45.3204 71.1617 43.8018 74.1239C42.4857 76.9839 41.9795 79.4353 41.2709 80.3546C39.7523 83.2147 35.2978 91.5904 32.1594 91.5904C31.1471 91.5904 29.2236 91.1819 28.8186 88.424C28.8186 88.1176 27.705 85.8704 27.705 85.4618C27.8062 85.2575 27.9075 84.9511 27.9075 84.6447C27.9075 82.1932 26.9963 80.0482 26.9963 79.7418C26.9963 78.9246 27.1988 78.2096 27.1988 77.3925C27.1988 75.5539 26.9963 74.5324 26.8951 73.7153C26.8951 73.1024 26.9963 72.5917 26.9963 71.9788C26.9963 70.0381 26.6926 69.0167 26.6926 68.6081C26.6926 67.0759 27.4013 65.2374 27.4013 63.7052C27.4013 63.2966 27.3 62.5816 27.3 62.173C27.3 59.6194 28.7174 59.313 28.7174 57.9851V56.8616C29.831 53.6951 29.831 53.0822 30.7421 48.6901C30.7421 47.9751 30.5396 47.4643 30.5396 46.9536C30.5396 46.1365 30.3372 45.115 30.3372 44.1957C30.3372 43.0722 30.9446 40.6207 30.9446 38.68C30.8434 38.4757 30.8434 38.2714 30.8434 37.965C30.8434 37.25 32.0582 33.2664 32.0582 32.3471C32.0582 31.1213 32.6656 30.4063 32.6656 29.5892C32.6656 29.487 32.1594 23.4606 30.5396 23.4606C30.4384 23.4606 29.9322 23.5627 29.831 23.5627C29.3248 23.5627 29.2236 23.4606 28.8186 23.3584C26.4901 24.0734 27.0976 25.8099 26.5914 28.057C25.7815 28.8742 26.1864 29.8956 25.7815 30.7128C25.6802 33.4706 26.4901 32.7556 25.2753 34.3899L24.9716 38.4757C23.9592 42.6636 23.8579 46.0343 23.2505 49.2008C22.4406 53.2865 21.9344 54.7165 21.9344 57.883C21.9344 59.0066 22.0357 60.4366 22.0357 61.2537C22.0357 62.3773 22.0357 62.9902 21.7319 63.8073C21.7319 64.0116 21.9344 64.8288 21.9344 65.1352C21.7319 65.6459 21.6307 66.4631 21.6307 67.1781C21.6307 69.221 21.8332 69.8338 22.0357 71.366C21.2258 76.0646 19.7072 78.8225 19.3022 79.9461C18.0874 83.8275 12.7218 89.7519 10.7983 90.569C8.16608 90.569 7.45741 85.9725 7.05246 78.3118C7.05246 78.0053 7.1537 77.4946 7.1537 76.8817C7.1537 74.4303 6.84999 69.7317 6.84999 66.7695C6.84999 65.5438 6.95122 64.6245 7.05246 64.2159V59.5173C7.05246 58.4959 8.87474 53.1844 8.87474 49.5072C8.87474 48.9965 8.57103 48.6901 8.57103 48.3836C8.57103 47.1579 9.68465 45.0129 9.98836 43.8893C12.1144 36.1264 10.697 39.4971 11.6082 36.535C11.8106 35.9221 13.0255 35.82 13.228 35.3092C13.5317 34.4921 13.8354 33.7771 13.9366 33.6749C13.6329 33.2664 14.1391 32.6535 13.3292 32.6535C10.1908 33.7771 8.16608 37.7607 8.16608 37.7607C6.84999 41.2336 4.92647 45.4215 4.01533 50.2222C2.80047 51.9587 2.39552 59.5173 1.99057 60.028C1.2819 63.3988 0.876953 72.5917 0.876953 73.7153C0.876953 78.2096 1.99057 82.0911 1.99057 86.0747C1.99057 86.1768 2.29428 86.6875 2.29428 86.994C2.29428 90.3647 3.71161 97.3105 8.06484 97.3105C10.0896 97.3105 13.5317 94.6548 13.8354 92.5097C14.7465 91.5904 15.8602 90.569 16.1639 89.139C16.5688 88.7304 18.8973 88.424 19.0998 88.0154C18.7961 85.0532 22.1369 83.2147 21.7319 83.4189C22.3394 84.5425 23.3518 88.9347 23.3518 89.3433C24.1617 92.8162 26.6926 95.1655 30.1347 95.1655C32.1594 94.9612 34.4879 93.1226 34.6904 92.8162C36.3102 93.5312 39.1449 87.8111 41.3721 86.0747C42.6882 82.6018 44.7129 80.6611 44.7129 80.7632C44.9154 79.8439 45.3204 79.0267 45.4216 78.1075C45.3204 78.0053 45.3204 77.4946 45.3204 77.4946C45.5228 76.7796 46.8389 76.2689 46.8389 74.0217C46.8389 73.7153 47.9526 72.6938 47.9526 72.6938C47.9526 72.6938 48.155 72.796 48.4587 73.8174C49.8761 77.1882 49.8761 77.801 50.3823 79.5375C50.9897 81.3761 51.5971 83.4189 52.407 84.7468C52.7107 89.3433 56.7602 88.9347 56.9627 91.284C58.0763 91.8969 58.4813 93.7355 59.1899 94.4505C59.6961 95.6762 60.6073 95.0633 61.9234 96.3912L62.7333 98.1276Z" fill="#E0E0E0"/>
<path d="M209.022 83.6232C209.022 83.0104 208.516 82.4996 207.908 82.0911C206.896 82.1932 206.693 82.9082 205.985 83.1125C205.985 83.2147 204.871 84.2361 204.871 84.3382C204.163 85.0533 203.555 85.4618 202.745 85.7682C202.037 86.4833 201.328 86.8918 200.518 87.709C200.417 87.709 199.911 87.9133 199.911 87.9133C198.797 88.5261 197.683 89.4454 196.57 89.4454C195.659 89.5476 195.051 89.9561 194.241 89.9561C193.735 89.9561 193.33 89.9561 193.026 89.5476C192.925 88.9347 191.609 89.0368 191.305 88.424C191.103 88.3218 190.597 87.0961 190.597 86.994C190.495 86.8918 189.989 86.3811 189.686 86.0747C189.382 85.7682 189.078 84.5425 188.977 84.2361C188.167 82.4996 187.357 76.8817 186.243 75.3496C185.636 74.4303 185.535 72.6938 184.927 71.9788C184.725 71.4681 184.219 71.2638 183.915 71.0596H182.801C182.194 71.5703 181.789 71.6724 181.485 71.7746C181.182 71.9788 180.878 72.4896 180.574 72.796C180.27 73.0003 180.169 73.0003 180.068 73.1024C179.967 73.8174 180.979 74.3281 180.777 75.0432C180.675 75.5539 181.384 76.6775 181.08 77.2903C181.08 79.3332 177.436 84.4404 175.715 85.9725C175.613 85.9725 175.31 86.1768 175.209 86.1768C174.5 86.1768 173.589 85.3597 173.589 84.9511C173.487 84.3382 173.184 83.4189 173.285 82.9082C173.285 82.7039 172.576 80.9675 172.576 80.7632C172.171 78.9246 172.981 75.656 173.285 74.1239C173.285 73.9196 173.083 72.796 173.083 72.6938C173.083 72.3874 173.487 72.081 173.285 71.5703C173.184 71.2638 172.678 71.0596 172.273 71.1617C171.361 71.366 170.147 71.1617 169.944 71.7746C169.843 71.9788 169.337 72.6938 169.337 73.0003C169.236 73.0003 169.235 73.1024 169.235 73.3067C169.134 73.4089 169.033 73.4088 168.932 73.511C168.729 73.6131 168.628 75.2474 168.527 76.7796C168.122 77.1882 167.919 77.5968 167.919 77.6989C168.426 79.6396 166.502 81.0696 166.3 82.0911C165.287 86.6875 164.477 86.0747 161.946 88.7304L160.225 89.2411C159.415 89.3433 158.504 88.5261 157.289 88.7304C154.961 89.0368 154.151 86.7897 153.442 86.3811C151.418 84.5425 149.798 81.1718 149.798 81.1718C148.279 78.4139 148.077 73.9196 147.571 72.081C147.368 71.2638 146.558 70.9574 146.457 70.7531C144.635 70.3445 143.42 71.6724 143.116 72.6938C143.116 74.8389 141.901 81.0696 142.003 81.7846C141.8 82.2954 141.395 83.2147 141.091 83.2147C141.395 84.3382 138.662 87.0961 137.548 87.3004C137.042 87.4025 135.928 86.6875 135.625 86.1768L135.118 85.2575C135.321 85.0532 135.422 84.849 135.625 84.5425C135.827 84.1339 135.827 83.7254 135.726 83.4189C135.726 82.8061 135.22 82.2954 134.612 81.8868C134.511 81.8868 134.41 81.8868 134.308 81.9889C134.005 81.8868 133.802 81.7846 133.802 81.8868L132.587 82.0911C132.587 82.4996 130.36 83.3168 130.968 83.3168C130.968 83.7254 130.461 84.4404 130.259 85.1554C129.955 85.2575 129.753 85.4618 129.449 85.564C128.74 86.279 128.032 86.6875 127.222 87.5047C127.121 87.5047 126.614 87.709 126.614 87.709C125.501 88.3218 124.387 89.2411 123.274 89.2411C122.362 89.3433 121.755 89.7519 120.945 89.7519C120.439 89.7519 120.034 89.7518 119.73 89.3433C119.629 88.7304 118.313 88.8326 118.009 88.2197C117.807 88.1176 117.3 86.8918 117.3 86.7897C117.199 86.6875 116.693 86.1768 116.389 85.8704C116.086 85.564 115.782 84.3382 115.681 84.0318C114.871 82.2954 114.061 76.6775 112.947 75.1453C112.34 74.226 112.239 72.4896 111.631 71.7746C111.429 71.2638 110.922 71.0595 110.619 70.8553H109.505C108.898 71.366 108.493 71.4681 108.189 71.5703C107.885 71.7746 107.582 72.2853 107.278 72.5917C106.974 72.796 106.873 72.796 106.772 72.8981C106.671 73.6131 107.683 74.1239 107.48 74.8389C107.379 75.3496 108.088 76.4732 107.784 77.086C107.784 79.1289 104.14 84.2361 102.419 85.7682C102.317 85.7682 102.014 85.9725 101.912 85.9725C101.204 85.9725 100.293 85.1554 100.293 84.7468C100.191 84.1339 99.8876 83.2147 99.9888 82.7039C99.9888 82.4996 99.2801 80.7632 99.2801 80.5589C98.8752 78.7203 99.6851 75.4517 99.9888 73.9196C99.9888 73.7153 99.7863 72.5917 99.7863 72.4896C99.7863 72.1831 100.191 71.8767 99.9888 71.366C99.8876 71.0595 99.3814 70.8553 98.9764 70.9574C98.0653 71.1617 96.8504 70.9574 96.6479 71.5703C96.5467 71.7746 96.0405 72.4896 96.0405 72.796C95.9393 72.796 95.9393 72.8981 95.9393 73.1024C95.8381 73.2046 95.7368 73.2046 95.6356 73.3067C95.2306 73.6131 94.9269 73.8174 94.6232 74.226C93.3071 75.1453 92.1935 76.7796 91.4848 76.5753C90.1687 78.8225 88.3465 78.2096 85.2081 78.3118C84.8031 77.6989 83.0821 75.5539 82.4747 75.1453C80.9561 74.226 79.0326 76.2689 78.2227 77.086C77.919 77.3925 78.5264 79.231 78.2227 79.9461C76.7041 81.3761 80.5511 82.9082 80.6524 83.0104C80.7536 83.5211 82.3734 86.1768 78.0202 87.709C77.7165 87.6068 77.4128 87.5047 77.1091 87.3004C76.8053 87.0961 76.2991 87.0961 75.793 87.1983C74.5781 85.6661 74.1731 82.1932 74.1731 82.0911C73.667 80.9675 73.3633 79.231 73.0595 77.9032C73.262 75.9624 72.1484 72.6938 73.7682 72.3874C74.1731 72.2853 74.5781 72.081 74.9831 71.7746C76.0967 70.1403 76.7041 68.506 78.0202 66.8717C79.3363 66.6674 78.8301 64.8288 79.7412 64.6245C79.64 64.5223 80.0449 64.3181 80.9561 62.3773C81.5635 61.2537 82.4747 59.6194 82.4747 58.9044C82.6771 58.0873 83.2846 58.2916 83.487 57.7809C87.3341 48.0772 85.1068 52.4694 85.9167 50.0179C87.0304 46.545 86.5242 47.8729 87.0304 46.7493L86.8279 45.7279L87.1316 45.6258C88.144 44.6043 88.7514 42.6636 89.2576 41.4379L89.5613 38.5778C89.865 36.4328 91.2823 34.6964 91.0799 32.3471C90.8774 31.5299 91.4848 31.1213 91.2823 30.3042C90.7762 27.8527 91.0799 25.4013 90.0675 23.8691C88.8526 21.622 86.9291 21.622 86.7266 21.4177C86.018 21.5198 85.613 21.3155 85.2081 21.4177C83.2846 21.7241 81.9685 23.3584 80.4499 24.1756C79.3363 25.0949 75.4893 29.7935 75.4893 31.1213C75.4893 31.1213 73.0595 35.6157 73.1608 35.7178L72.7558 36.2285C71.3385 39.5993 70.3261 44.7065 70.4274 44.5022C70.0224 46.8515 69.2125 49.6094 69.3137 50.0179C69.2125 50.6308 69.2125 50.7329 69.1113 51.2437C67.6939 57.7809 66.9853 64.3181 67.1877 70.9574C67.1877 71.0595 67.1877 71.7746 67.0865 71.8767C67.1877 74.0217 66.884 76.1667 67.4915 77.086C67.9976 77.9032 67.7952 79.7418 67.7952 80.5589C68.0989 82.1932 68.6051 83.7254 68.9088 85.564C70.1236 92.1012 74.5781 93.0204 75.9954 93.429C76.2991 93.5312 77.0078 94.2462 77.9189 93.9397C79.64 93.6333 80.7536 91.7947 81.1586 90.7733C82.2722 89.854 83.1833 88.7304 83.9932 87.709C85.0056 86.3811 85.7143 84.849 86.1192 83.2147C87.3341 82.8061 88.4477 82.7039 89.9663 81.6825C90.3712 81.3761 91.1811 81.3761 91.5861 81.0696C91.991 80.7632 92.6997 79.3332 93.1046 79.0268C93.7121 78.6182 94.0158 78.9246 94.522 78.4139C95.0281 78.0053 95.3319 76.9839 95.7368 76.6775C95.7368 77.086 95.1294 78.9246 95.1294 79.231C95.1294 79.5375 95.3319 82.2954 95.6356 83.5211C96.0405 85.1554 96.4455 87.0961 96.3442 87.8111L96.6479 88.5261C97.0529 89.0368 97.1541 91.0797 97.3566 91.5904C97.6603 92.2033 98.5715 92.4076 99.4826 92.8162H99.8876C100.596 92.5097 101.912 92.3055 102.52 92.1012C103.026 91.4883 103.431 91.3862 103.633 90.9776C104.14 90.3647 104.443 89.854 104.747 89.5476C104.949 89.4454 105.456 89.0368 105.557 88.9347C106.367 88.0154 107.075 87.3004 107.987 86.5854C108.189 86.1768 109.708 84.4404 109.91 83.1125C110.011 82.6018 111.024 87.709 111.429 88.3218C111.429 88.3218 111.631 89.0368 111.732 89.0368C112.542 89.7519 113.453 90.569 114.365 91.4883C114.668 91.8969 114.871 92.3055 115.276 92.5097C115.478 92.5097 116.288 92.8162 116.389 92.9183C116.794 92.9183 117.402 92.8162 117.604 92.9183C118.11 92.9183 118.313 93.6333 118.819 93.5312C119.933 93.5312 121.755 93.0205 122.97 92.5097C123.172 92.3055 123.678 92.2033 123.78 92.1012C125.096 91.7947 126.311 91.5904 127.525 90.9776C127.93 90.7733 128.032 90.3647 128.538 90.1604C128.943 89.854 129.449 89.854 129.651 89.6497C129.955 89.4454 130.36 89.2411 130.664 89.0368C131.271 89.6497 131.474 90.7733 132.689 90.8754L133.094 91.284C133.499 91.3862 133.6 91.999 134.207 91.999C135.928 92.1012 136.029 92.3055 137.346 91.999C142.205 90.569 143.825 86.7897 144.736 86.4833L145.951 86.1768C147.976 88.7304 149.292 90.6712 151.519 91.6926L152.228 91.8969C153.24 91.999 154.455 93.429 157.087 93.2247L158.403 93.0205C160.225 93.0205 161.744 91.6926 163.262 91.6926C164.275 91.6926 166.401 89.7519 166.806 88.9347C167.413 87.8111 168.932 86.279 169.033 85.564C169.134 85.1554 169.134 84.6447 169.235 84.2361C169.539 85.6661 169.843 87.3004 169.742 87.8111L170.045 88.5261C170.45 89.0368 170.552 91.0797 170.754 91.5904C171.058 92.2033 171.969 92.4076 172.88 92.8162H173.285C173.994 92.5097 175.31 92.3055 175.917 92.1012C176.423 91.4883 176.828 91.3862 177.031 90.9776C177.537 90.3647 177.841 89.854 178.144 89.5476C178.347 89.4454 178.853 89.0368 178.954 88.9347C179.764 88.0154 180.473 87.3004 181.384 86.5854C181.587 86.1768 183.105 84.4404 183.308 83.1125C183.409 82.6018 184.421 87.709 184.826 88.3218C184.826 88.3218 185.029 89.0368 185.13 89.0368C185.94 89.7519 186.851 90.569 187.762 91.4883C188.066 91.8969 188.268 92.3055 188.673 92.5097C188.876 92.5097 189.686 92.8162 189.787 92.9183C190.192 92.9183 190.799 92.8162 191.002 92.9183C191.508 92.9183 191.71 93.6333 192.216 93.5312C193.33 93.5312 195.152 93.0205 196.367 92.5097C196.57 92.3055 197.076 92.2033 197.177 92.1012C198.493 91.7947 199.708 91.5904 200.923 90.9776C201.328 90.7733 201.429 90.3647 201.935 90.1604C202.34 89.854 202.846 89.854 203.049 89.6497C203.758 89.139 204.77 88.6283 205.276 88.2197C205.681 87.4025 206.39 86.8918 207.098 86.3811C207.908 85.4618 208.617 85.2575 209.123 84.2361C209.123 84.3382 209.123 83.9297 209.022 83.6232ZM72.3509 66.9738C72.2496 66.6674 72.0472 66.2588 71.9459 65.9524C71.541 63.2966 73.3633 62.5816 72.6546 58.1894C74.2744 48.1793 74.983 45.6258 74.8818 45.83C74.983 44.7065 75.5905 43.0722 75.9954 41.9486C77.1091 37.25 78.1214 34.5942 80.045 31.5299L81.2598 29.8956C82.9809 27.0356 84.9044 26.2184 85.5118 27.0356C87.4353 26.627 88.2452 29.487 88.5489 30.9171C88.7514 32.1428 88.0427 35.2071 87.6378 36.4328C86.2205 41.6422 85.3093 44.0936 84.1957 46.8515C83.3858 48.6901 82.7784 50.0179 82.7784 50.1201C81.6647 53.8994 80.2474 57.883 79.64 58.0873C77.919 62.0709 78.1214 62.2752 76.4004 64.4202C75.4892 65.6459 75.1855 66.9738 75.1855 67.3824C75.1855 67.5867 73.4645 69.221 73.4645 69.3231L73.3632 72.1831C73.3632 72.3874 72.0472 70.8553 72.0472 70.651C71.8447 69.936 72.3509 67.2802 72.3509 66.9738Z" fill="#E0E0E0"/>
<path d="M50.8885 16.8212L49.3699 17.7405L48.56 16.4126L46.1303 17.9448L49.7748 23.8691L50.686 23.2563L51.4959 24.6863L47.5476 27.1377L46.7377 25.7077L47.6488 25.0949L44.0043 19.1705L43.0931 19.7834L42.2832 18.4555L49.2686 14.1655L50.8885 16.8212Z" fill="#E0E0E0"/>
<path d="M62.7333 11.4076C63.1382 12.429 63.2395 13.3483 62.8345 14.0633C62.4296 14.7783 61.6197 15.3912 60.4048 15.9019L59.1899 16.4126L59.9999 18.3534L61.0122 17.9448L61.6197 19.477L57.3677 21.3155L56.7603 19.7834L57.7726 19.3748L55.0392 12.9398L54.0268 13.3483L53.4194 11.9183L57.8739 9.97758C59.0887 9.46686 60.1011 9.26258 60.911 9.46686C61.7209 9.77329 62.3283 10.3862 62.7333 11.4076ZM60.4048 12.429C60.2023 11.9183 59.8986 11.6119 59.4937 11.5097C59.0887 11.4076 58.5825 11.5097 57.8739 11.8162L57.3677 12.0205L58.5825 14.9826L59.0887 14.7783C59.6961 14.4719 60.2023 14.1655 60.4048 13.859C60.6073 13.3483 60.6073 12.9398 60.4048 12.429Z" fill="#E0E0E0"/>
<path d="M75.8942 5.68754L74.7806 5.99398L73.667 13.144C73.5657 13.9612 73.262 14.6762 72.9583 15.0848C72.6546 15.4933 72.2496 15.7998 71.6422 16.0041C71.4397 16.1062 71.2373 16.1062 71.136 16.1062C71.0348 16.1062 70.8323 16.1062 70.4274 16.1062L69.9212 14.3698C70.0224 14.3698 70.1236 14.3698 70.2249 14.3698C70.3261 14.3698 70.5286 14.3698 70.6298 14.2676C70.9335 14.1655 71.2373 14.0633 71.3385 13.9612C71.4397 13.859 71.541 13.5526 71.6422 13.2462L71.7434 12.9397L67.3902 8.03685L66.3778 8.44543L65.9729 6.91327L70.3261 5.68754L70.7311 7.2197L69.8199 7.42399L72.2496 10.1819L72.7558 6.60684L71.9459 6.81112L71.541 5.27897L75.4893 4.15539L75.8942 5.68754Z" fill="#E0E0E0"/>
<path d="M89.1564 9.05829C89.3588 9.97758 89.0551 10.7947 88.4477 11.4076C87.8403 12.1226 86.8279 12.5312 85.613 12.7355C84.4994 12.9398 83.6895 12.8376 82.8796 12.5312C82.0697 12.2247 81.4623 11.6119 81.0573 10.6926L82.5759 9.56901C82.8796 10.0797 83.1833 10.4883 83.487 10.7947C83.892 11.1012 84.3982 11.1012 85.0056 10.999C85.613 10.8969 86.018 10.6926 86.3217 10.3862C86.6254 10.0797 86.7266 9.67115 86.6254 9.26258C86.5242 8.75186 86.3217 8.44543 86.018 8.24114C85.613 8.03685 85.2081 8.03685 84.6007 8.139L83.9932 8.24114L83.6895 6.60684L84.2969 6.50469C84.8031 6.40255 85.2081 6.19826 85.4106 5.99398C85.613 5.68754 85.7143 5.38111 85.613 4.97254C85.5118 4.66611 85.4106 4.35967 85.1068 4.15539C84.8031 3.9511 84.4994 3.9511 83.9932 3.9511C83.487 4.05324 83.0821 4.25753 82.7784 4.56396C82.5759 4.8704 82.3734 5.27897 82.1709 5.99398L80.7536 6.40255L80.2474 3.13395L81.766 2.82752L81.9685 3.74681C82.2722 3.33824 82.4747 3.03181 82.7784 2.82752C83.1833 2.52109 83.6895 2.3168 84.2969 2.21466C85.3093 2.01037 86.1192 2.11251 86.8279 2.52109C87.5366 2.92966 87.9415 3.44038 88.0427 4.25753C88.144 4.76825 88.0427 5.27897 87.8403 5.68754C87.6378 6.19826 87.2328 6.5047 86.8279 6.60684C87.5366 6.70898 88.0427 7.01541 88.4477 7.32184C88.7514 7.93471 89.0551 8.44543 89.1564 9.05829Z" fill="#E0E0E0"/>
<path d="M103.33 10.6926L98.774 10.999L98.6727 9.36472L99.7863 9.26258L99.4826 4.46182L96.7492 11.1012L93.2059 11.3055L93.1046 9.67115L94.2183 9.56901L93.7121 2.62323L92.5984 2.72538L92.4972 1.09108L97.0529 0.784645L97.1541 2.41895L96.0405 2.52109L96.3442 7.42399L99.0777 0.784645L102.621 0.580356L102.722 2.21466L101.609 2.3168L102.115 9.26258L103.228 9.16043L103.33 10.6926Z" fill="#E0E0E0"/>
<path d="M116.997 10.999L112.441 10.7947L112.542 9.16043H113.656L113.757 6.19826L110.72 6.09612L110.619 9.05829H111.732L111.631 10.6926L107.075 10.4883L107.177 8.854H108.29L108.594 1.90823H107.48L107.582 0.273926L112.137 0.478214L112.036 2.11251H110.922L110.821 4.46182L113.858 4.56396L113.96 2.21466H112.846L112.947 0.580356L117.503 0.784645L117.402 2.41895H116.288L115.984 9.36472H117.098L116.997 10.999Z" fill="#E0E0E0"/>
<path d="M130.968 9.56901C130.461 10.5904 129.651 11.4076 128.74 11.9183C127.829 12.429 126.716 12.5312 125.501 12.3269C123.982 12.1226 122.767 11.4076 121.957 10.284C121.147 9.16043 120.743 7.83256 121.046 6.30041C121.249 4.76825 121.957 3.64467 122.97 2.72538C124.083 1.90823 125.399 1.6018 126.817 1.80608C128.133 2.01037 129.145 2.52109 129.753 3.54253L129.955 2.41895L131.474 2.62323L130.968 6.09612L129.449 5.89183C128.943 4.46182 128.133 3.64467 126.918 3.54253C126.108 3.44038 125.399 3.64467 124.792 4.15539C124.185 4.66611 123.881 5.48326 123.678 6.60684C123.476 7.73042 123.678 8.54757 124.083 9.26258C124.488 9.97758 125.096 10.3862 126.007 10.4883C127.424 10.6926 128.538 9.97758 129.348 8.44543L130.968 9.56901Z" fill="#E0E0E0"/>
<path d="M138.257 14.6762L133.802 13.4505L134.207 11.8162L135.22 12.1226L137.042 5.38111L136.029 5.07468L136.434 3.54253L140.889 4.76825L140.484 6.30041L139.472 5.99398L137.649 12.7355L138.662 13.0419L138.257 14.6762ZM143.825 16.1062L138.965 14.7783L139.37 13.144L140.383 13.4505L138.56 9.05829L142.306 6.70898L141.193 6.40255L141.598 4.87039L145.647 5.99398L145.242 7.52613L144.533 7.42399L141.091 9.56901L143.116 14.2676L144.129 14.5741L143.825 16.1062Z" fill="#E0E0E0"/>
<path d="M158.302 16.4126C157.694 17.8426 156.783 18.8641 155.467 19.3748C154.151 19.8855 152.835 19.8855 151.418 19.2727C150 18.6598 148.988 17.7405 148.482 16.4126C147.976 15.0848 147.976 13.7569 148.583 12.3269C149.19 10.8969 150.102 9.87544 151.418 9.36472C152.734 8.854 154.05 8.854 155.568 9.46686C156.986 10.0797 157.897 10.999 158.504 12.2247C158.909 13.6548 158.909 14.9826 158.302 16.4126ZM155.771 15.3912C156.176 14.3698 156.277 13.5526 156.075 12.7355C155.872 11.9183 155.467 11.4076 154.758 11.1012C154.05 10.7947 153.341 10.8969 152.632 11.3055C151.924 11.714 151.418 12.429 151.013 13.3483C150.608 14.3698 150.507 15.1869 150.709 16.0041C150.911 16.8212 151.316 17.3319 152.025 17.6384C152.734 17.9448 153.442 17.8427 154.05 17.4341C154.86 17.0255 155.467 16.3105 155.771 15.3912Z" fill="#E0E0E0"/>
<path d="M166.603 27.1377L159.314 22.6434L160.124 21.2134L161.035 21.8263L164.579 15.9019L163.667 15.2891L164.477 13.9612L171.766 18.4555L170.147 21.1113L168.628 20.192L169.438 18.8641L166.705 17.2298L165.388 19.3748L167.616 20.8048L166.806 22.2348L164.579 20.8048L163.161 23.1541L165.895 24.7884L166.806 23.3584L168.324 24.2777L166.603 27.1377Z" fill="#E0E0E0"/>
</svg>
