<svg width="304" height="54" viewBox="0 0 304 54" fill="none" xmlns="http://www.w3.org/2000/svg">
<path d="M276.765 0C262.034 0 250.087 12.0322 250.03 26.8962L250.034 26.8952L269.699 17.0229C269.587 16.9476 269.483 16.862 269.386 16.7673C269.355 16.7363 269.33 16.6985 269.315 16.6567C269.3 16.615 269.294 16.5703 269.298 16.5259C269.306 16.4363 269.354 16.3549 269.428 16.3039C271.051 15.198 272.549 13.9163 273.896 12.4817C274.138 12.2244 274.386 11.9739 274.642 11.7305C274.643 11.7292 274.645 11.7281 274.646 11.7268C274.935 11.4509 275.293 11.2596 275.682 11.1736C276.942 10.8912 279.919 10.1952 281.863 9.51002C282.671 9.22375 283.543 9.17976 284.375 9.38339C284.493 9.41207 284.61 9.44607 284.729 9.47836L291.295 6.18222C291.318 6.17076 291.343 6.16534 291.368 6.16648C291.394 6.16763 291.418 6.1753 291.44 6.18876C291.461 6.20222 291.479 6.22103 291.491 6.24339C291.504 6.26575 291.51 6.29092 291.51 6.3165V8.4494C291.51 8.47838 291.502 8.50671 291.486 8.531C291.47 8.5553 291.448 8.57455 291.422 8.58645L287.286 10.468C287.876 10.7714 288.442 11.1197 288.979 11.5099L292.067 10.2177C292.094 10.2064 292.124 10.2035 292.153 10.2093C292.182 10.2151 292.209 10.2294 292.23 10.2505L293.703 11.7387C293.721 11.7565 293.734 11.7785 293.741 11.8027C293.748 11.8269 293.748 11.8525 293.743 11.8771C293.738 11.9016 293.727 11.9243 293.71 11.9433C293.694 11.9622 293.673 11.9767 293.65 11.9854L290.777 13.0613C292.658 14.9992 293.763 17.4021 294.142 19.0387C295.798 25.4485 293.942 39.7385 285.536 52.5094V52.5106C285.536 52.5119 285.536 52.5132 285.535 52.5145C295.993 48.8487 303.5 38.8115 303.5 27.0014C303.5 12.0891 291.529 0 276.765 0ZM286.556 25.5609C284.685 24.2893 282.958 22.8129 281.407 21.1585C281.199 20.9365 280.948 20.7597 280.67 20.6388C280.392 20.518 280.093 20.4555 279.79 20.4554H274.043C273.381 20.4554 272.742 20.3048 272.162 20.0324L250.064 28.3087L250.06 28.3091C250.522 38.0811 256.127 46.4903 264.199 50.8396C264.201 50.8388 264.202 50.8375 264.202 50.8362C275.647 47.9971 284.607 38.7835 287.179 27.1331C287.244 26.8382 287.219 26.5304 287.108 26.2499C286.997 25.9694 286.805 25.7293 286.556 25.5609ZM276.054 17.4733H278.362C278.495 17.4733 278.624 17.4287 278.729 17.3467C278.834 17.2646 278.909 17.1497 278.942 17.0199C279.071 16.5222 279.071 15.9994 278.942 15.5017C278.909 15.3715 278.834 15.2563 278.728 15.1741C278.623 15.0919 278.494 15.0474 278.361 15.0476H277.222L277.219 15.0493H275.384C275.179 15.0492 274.982 15.1255 274.83 15.2636C274.678 15.4017 274.582 15.5918 274.56 15.7972C274.559 15.7972 274.559 15.7978 274.559 15.7983C274.528 16.0842 274.631 16.4669 274.848 16.8618C274.876 16.8992 274.905 16.9368 274.936 16.9721C275.077 17.13 275.25 17.2561 275.442 17.3425C275.635 17.4288 275.843 17.4734 276.054 17.4733Z" fill="#5B5B5B"/>
<path d="M184.428 37.3296V17.9985L179.01 18.9501V45.4758H184.428L197.384 26.0672V45.4758H202.801V18.2365L196.638 19.0298L184.428 37.3296ZM92.2095 23.312H100.848V45.4758H106.343V23.312H114.627L116.197 18.4742H92.2095V23.312ZM219.095 18.4742C214.187 18.4742 209.398 21.4874 209.398 27.5145C209.398 30.7654 210.85 33.1842 213.049 34.6515C213.474 34.9222 214.357 35.4108 215.77 35.7824C212.622 40.1447 209.54 41.163 207.985 41.5897L209.436 45.9912C215.322 45.5697 218.611 40.9661 221.417 36.2773H226.711V45.4758H232.206V18.4742H219.095ZM226.711 31.8355H218.859C216.974 31.8355 214.855 30.5276 214.816 27.5147C214.816 24.6598 216.621 23.2722 218.859 23.2722H226.711V31.8355ZM49.9775 31.234L58.7593 19.0298L53.3415 17.9985L45.2549 29.378H41.4071V17.9985L35.9114 18.9901V45.4758H41.4071V34.3339H45.6471C48.2384 39.1721 52.2821 45.792 58.0922 45.9513L59.6622 41.1144C58.9949 40.9155 58.4065 40.6774 57.817 40.4011C53.9707 38.4384 51.8237 34.6118 49.9775 31.234ZM129.898 17.8402C121.418 17.8402 116.551 23.3904 116.551 30.8837V32.9862C116.551 40.5195 121.419 46.1106 129.898 46.1106C138.221 46.1106 143.129 40.5195 143.129 32.9862V30.8837C143.129 23.3906 138.221 17.8402 129.898 17.8402ZM137.476 32.9862C137.476 37.3083 135.434 40.8766 129.899 40.8766C124.245 40.8766 122.204 37.3083 122.204 32.9862V30.8837C122.204 26.5229 124.245 22.9544 129.899 22.9544C135.434 22.9544 137.476 26.5229 137.476 30.8837V32.9862ZM69.5568 37.3309V17.9985L64.139 18.9501V45.4758H69.5568L82.5123 26.0672V45.4758H87.9302V18.2365L81.7662 19.0298L69.5568 37.3309Z" fill="#E0E0E0"/>
<path d="M283.871 15.0493C284.928 15.0493 285.977 14.859 286.969 14.488L293.65 11.9854C293.673 11.9767 293.694 11.9622 293.71 11.9433C293.727 11.9243 293.738 11.9016 293.743 11.8771C293.748 11.8525 293.748 11.8269 293.741 11.8027C293.734 11.7785 293.721 11.7565 293.703 11.7387L292.23 10.2505C292.209 10.2294 292.182 10.2151 292.153 10.2093C292.124 10.2035 292.094 10.2064 292.067 10.2177L280.534 15.0493H283.871Z" fill="white"/>
<path d="M13.023 10.4255C5.87869 10.4255 0.892543 15.4213 0.853205 21.9233C0.853205 27.3564 4.70105 32.1542 10.1187 33.0659C7.60539 36.8713 4.62195 39.9252 0.5 41.0347L2.10952 45.9513C8.97887 45.7136 12.9832 39.0123 16.3996 33.4222H22.8768V45.4758H28.4524V10.4255H13.023ZM22.877 28.1487H13.023C9.5292 28.1487 6.89855 25.6514 6.89855 21.9233C6.89855 18.1181 9.5292 15.739 13.023 15.739H22.877V28.1487ZM161.658 17.9586C158.792 17.9586 155.299 19.3062 153.611 21.3688V18.4742H148.468V54H153.964V43.652C155.771 45.9116 159.225 46.2294 161.658 46.2294C168.607 46.2294 173.436 42.3828 173.436 33.0262V31.083C173.436 21.4087 168.057 17.9586 161.658 17.9586ZM167.978 32.9862C167.978 36.1574 167.076 41.1144 161.658 41.1144C158.949 41.1144 155.299 40.3215 153.963 37.8622V26.9587C155.377 24.977 157.968 22.9941 161.658 22.9941C166.605 22.9941 167.978 27.1966 167.978 31.0828V32.9862Z" fill="#E0E0E0"/>
<path d="M294.128 18.9782C294.255 19.5061 294.29 20.0008 294.19 20.6048C293.714 22.9219 291.088 24.0363 289.12 22.767C287.901 21.9817 286.748 21.0971 285.672 20.1221C284.904 19.4272 283.92 19.0233 282.889 18.9795L277.935 18.7672C275.74 18.6746 274.463 16.7263 274.56 15.7987V15.7972C274.582 15.5918 274.678 15.4017 274.83 15.2636C274.982 15.1255 275.181 15.0497 275.385 15.0498L277.219 15.0493L291.423 8.58708C291.449 8.57514 291.471 8.55531 291.486 8.531C291.502 8.50671 291.51 8.47838 291.51 8.4494V6.3165C291.51 6.29092 291.504 6.26575 291.491 6.24339C291.479 6.22103 291.461 6.20222 291.44 6.18876C291.418 6.1753 291.394 6.16763 291.368 6.16648C291.343 6.16534 291.318 6.17076 291.295 6.18222L250.035 26.8956C250.035 27.1711 250.031 27.2542 250.042 27.6585C250.047 27.8863 250.058 28.1961 250.064 28.3087L272.162 20.0324C272.751 20.3104 273.393 20.4548 274.043 20.4554H279.79C280.402 20.4554 280.986 20.7104 281.407 21.1585C282.958 22.8129 284.685 24.2893 286.556 25.5609C286.805 25.7293 286.997 25.9694 287.108 26.2499C287.219 26.5304 287.243 26.8383 287.178 27.1331C284.606 38.7835 275.647 47.9971 264.202 50.8362C267.947 52.8546 272.224 53.9996 276.765 53.9996C279.837 53.9996 282.788 53.4737 285.536 52.5106V52.5094C293.968 39.699 295.81 25.3593 294.128 18.9782Z" fill="#E0E0E0"/>
<path d="M284.729 9.47836L269.699 17.0229C269.587 16.9476 269.483 16.862 269.386 16.7673C269.355 16.7363 269.33 16.6985 269.315 16.6567C269.3 16.615 269.294 16.5703 269.298 16.5259C269.306 16.4363 269.354 16.3549 269.428 16.3039C271.051 15.198 272.549 13.9163 273.896 12.4817C274.139 12.2247 274.387 11.9742 274.643 11.7305L274.646 11.7268C274.935 11.4509 275.293 11.2596 275.682 11.1736C276.942 10.8912 279.919 10.1952 281.865 9.51002C282.672 9.22374 283.544 9.17975 284.375 9.38339C284.493 9.41228 284.612 9.44607 284.729 9.47836ZM294.126 18.9724C294.043 18.6278 293.921 18.2692 293.771 17.8572L293.774 17.8568C293.122 16.0618 292.1 14.4276 290.774 13.063L286.969 14.488C285.977 14.859 284.928 15.0493 283.871 15.0493H280.534L288.978 11.5123C288.44 11.1215 287.874 10.7729 287.283 10.4697L277.219 15.0493L278.361 15.0495C278.635 15.0495 278.873 15.2352 278.943 15.5032C279.004 15.7458 279.038 15.9999 279.038 16.2625C279.038 16.5245 279.004 16.7788 278.943 17.0214C278.909 17.1513 278.834 17.2662 278.729 17.3482C278.623 17.4303 278.494 17.4749 278.361 17.475H276.054C275.82 17.4753 275.588 17.4201 275.379 17.3137C275.169 17.2074 274.988 17.0521 274.848 16.8618C275.464 17.9564 276.607 18.7111 277.935 18.7672L282.889 18.9795C283.92 19.0233 284.904 19.4272 285.672 20.1221C286.748 21.0971 287.901 21.9817 289.12 22.767C291.088 24.0363 293.714 22.9219 294.19 20.6048C294.29 19.9986 294.254 19.5027 294.126 18.9724Z" fill="white"/>
</svg>
